<svg xmlns="http://www.w3.org/2000/svg" width="128" height="78.75" viewBox="0 0 128 78.75"><title>pug-icon</title><path d="M107.11,24.58c-.2-4.4.4-8.29-1.6-11.59C100.71,4.8,88.73,0,64.75,0V.7h0V0c-24,0-36.56,4.8-41.36,13.09-1.9,3.4-1.7,7.19-2,11.59-.2,3.5-1.8,7.19-1.1,11.19.8,5.19,1.1,10.39,1.9,15.19.6,3.9,6,7.19,6.49,10.89,1.4,10.19,12,14.89,36,14.89v.8h.1v-.8c24,0,34.17-4.7,35.47-14.89.5-3.8,5.49-7,6.09-10.89.8-4.8,1.1-10,1.9-15.19.7-4-.9-7.79-1.1-11.29Z" fill="#efcca3"/><path d="M64.35,28.17c4.3.1,7.29,2.8,10.09,5.29,3.3,2.9,8.89,4.9,11.19,7.39s5.29,5,6.39,8.89a46.2,46.2,0,0,1,1.4,10.19c0,1.3.7,1,2.7,0,4.7-2.3,9.89-8.49,9.89-8.49-.6,3.9-5.69,7.39-6.19,11.09-1.2,10.19-11.09,15.09-35.57,15.09h.5" fill="#ccac8d"/><path d="M80.13,20.38C81,23.48,84.23,34,78,30.47c0,0,2.6,1.5,4.2,7.19S88,44.06,88,44.06s6.69,1.3,11.69-3c4.2-3.6,4.9-10,3.1-14.89s-5-6.29-9.69-7.29S79,16.88,80.13,20.38Z" fill="#ccac8d"/><circle cx="92.02" cy="31.77" r="8.79"/><circle cx="89.73" cy="27.87" r="2.3" fill="#fff"/><path d="M78.64,31.37s7.89,5.39,12.19,10.69S95,48.35,95,48.35l-3.1,1.4s-4.4-8.29-9.79-11.39S76,32.67,76,32.67l2.6-1.3Z" fill="#efcca3"/><path d="M64.65,28.17c-4.3.1-7.49,2.8-10.39,5.29-3.3,2.9-9.09,4.9-11.39,7.39s-5.39,5-6.49,8.89a48,48,0,0,0-1.5,10.19c0,1.3.2,1.4-2.7,0-4.7-2.2-9.89-8.49-9.89-8.49.6,3.9,5.69,7.39,6.19,11.09,1.4,10.19,11.29,15.09,35.77,15.09h.5" fill="#ccac8d"/><path d="M87.83,45.06C83,39.16,75.34,33.67,64.65,33.67h-.1c-10.69,0-18.38,5.49-23.18,11.39-5,6.09-4.6,8.49-4.6,14.29,0,21,7.39,15,12.29,17.58s10.19,1.7,15.49,1.7h.1c5.39,0,10.49.7,15.49-1.8s12.29,3.7,12.29-17.28c.1-5.79.4-8.39-4.6-14.49Z" fill="#56332b"/><path d="M64.15,38.86s-.7,9.69-2.1,11.59l2.6-.6Z" fill="#442823"/><path d="M64.85,38.86s.7,9.69,2.1,11.59l-2.6-.6Z" fill="#442823"/><path d="M56.46,36.56c-1-2.3,2.6-6,8.29-6.09S74,34.17,73,36.56s-4.6,3.1-8.29,3.2c-3.6-.1-7.29-.8-8.29-3.2Z" fill="#56332b"/><path d="M64.75,38.86c0-.4,3.4-.5,5.19-1.7,0,0-3.7,1.2-4.5.7a2.41,2.41,0,0,1-1-1.6,3.27,3.27,0,0,1-.9,1.6c-.7.4-4.9-.7-4.9-.7s5.59,1.4,5.59,1.7-.1,1.3-.1,2c0,2.5,0,8.69.4,9.19.6.9.4-6.69.4-9.19C64.85,40.06,64.85,39.26,64.75,38.86Z"/><path d="M64.95,52.25c1.7,0,4.7,1.2,7.39,3.1-2.6-2.9-5.69-4.9-7.39-4.9s-5.59,2.2-8.29,5.39C59.45,53.65,63.05,52.25,64.95,52.25Z" fill="#7f4a41"/><path d="M64.25,69.93c-3.8,0-7.49-1.2-10.89-2.1-.7-.2-1.4.3-2.1.1-6.29-2-11.39-5.39-14.49-9.69v1c0,21,7.39,15.09,12.29,17.58s10.19,1.7,15.49,1.7h.1c5.39,0,10.49.7,15.49-1.8s12.29,3.6,12.29-17.38a16.93,16.93,0,0,1,.1-2.3c-2.9,4.7-8.19,8.39-14.79,10.59-.6.2-2-.3-2.6-.2-3.6,1.2-6.79,2.5-10.89,2.5Z" fill="#442823"/><path d="M54.76,58.64s-2.5,7.49-.8,10.79l-2.3-1S53.36,60.84,54.76,58.64Zm19.78,0s2.5,7.49.8,10.79l2.3-1s-1.8-7.59-3.1-9.79Z" fill="#442823"/><path d="M48.37,20.38c-.9,3.1-4.1,13.59,2.1,10.09,0,0-2.6,1.5-4.2,7.19s-5.79,6.39-5.79,6.39-6.69,1.3-11.69-3c-4.2-3.6-4.9-10-3.1-14.89s5-6.29,9.69-7.29,14-2,13,1.5Z" fill="#ccac8d"/><path d="M64.65,50.45c2.7,0,11.09,5.79,11.19,12.89v-.4c0-7.39-6.79-13.29-11.19-13.29s-11.19,6-11.19,13.29v.4C53.56,56.25,62,50.45,64.65,50.45Z"/><ellipse cx="66.46" cy="35.17" rx="0.8" ry="1.5" transform="translate(-6.68 17.71) rotate(-14.47)" fill="#331712"/><ellipse cx="62.14" cy="35.17" rx="1.5" ry="0.8" transform="translate(10.13 84.1) rotate(-72.76)" fill="#331712"/><circle cx="36.98" cy="31.77" r="8.79"/><circle cx="39.27" cy="27.87" r="2.3" fill="#fff"/><path d="M67.25,31.87c0-.1-2.3,1-2.9,1.1-.6-.1-2.9-1.2-2.9-1.1Z" fill="#7f4a41"/><path d="M49.76,31.37s-7.89,5.39-12.19,10.69-4.2,6.29-4.2,6.29l3.1,1.4s4.4-8.29,9.79-11.39,6.09-5.69,6.09-5.69Z" fill="#efcca3"/><path d="M32.48,15.39s-2.7,7.39-8.69,10.49C23.79,25.87,33.18,24.78,32.48,15.39Zm63,0s2.7,7.39,8.69,10.49C104.21,25.87,94.82,24.78,95.52,15.39ZM78.44,29.17S72.54,23,64.65,22.78h.2c-8,.2-13.79,6.39-13.79,6.39,6.89-4.8,12.79-4.7,13.79-4.7a25.67,25.67,0,0,1,13.59,4.7Zm-6.89-13s-3-4.2-7-4.3h.2c-3,.1-6.89,4.3-6.89,4.3A10.36,10.36,0,0,1,64.75,13S68,12.89,71.54,16.18ZM37,46.85s-4.7,2.3-8.09.9h-.1c-3-1.7-4.5-6.79-4.5-6.79S27.29,50,37,46.85Zm54.75,0s4.7,2.3,8.09.9c4-1.7,4.6-6.79,4.6-6.79S101.41,50,91.72,46.85Z" fill="#ccac8d"/><path d="M42.37,14.89a22.91,22.91,0,0,1,10.29.5c4.3,1.5.8,7,1.7,7.29s2.1-3.8,10.09-3.4,9,4,10.09,3.4-1.1-10,11-7.79c0,0-12.69-3.4-12.09,5.79,0,0-7.29-5.59-17.48-.6C56.06,20.08,58.66,11.49,42.37,14.89Zm44.26,0c.2,0,.3.1.4.1S86.93,14.89,86.63,14.89ZM38.87,2.6S28.08,16.18,26.49,21.38s-2.8,27-4.2,30.07l-5-21.38L26.49,7.79,38.87,2.6Zm50.75,0S100.41,16.18,102,21.38s2.8,27,4.2,30.07l5-21.38L102,7.79,89.63,2.6Z" fill="#ccac8d"/><path d="M89.13,2.6s11.59,9.69,15,20.88,2,24.78,4.6,26.47c3.7,2.4,7.89-11.89,9.29-13.39,2.2-2.4,9.49-8.49,10-9.59S113.2,9.19,106.51,5.89C98.42,2.1,88.43,1.8,89.13,2.6Z" fill="#56332b"/><path d="M99,8.59S112.7,26.07,112.5,47.85L118,36.66A82.12,82.12,0,0,0,99,8.59Z" fill="#442823"/><path d="M38.87,2.6s-11.59,9.69-15,20.88-2,24.78-4.6,26.47C15.6,52.35,11.4,38.06,10,36.56,7.8,34.17.51,28.07,0,27S14.8,9.19,21.49,5.89c8.09-3.8,18.08-4.1,17.38-3.3Z" fill="#56332b"/><path d="M29,8.59S15.3,26.07,15.5,47.85L10.1,36.66S14.9,22.38,29,8.59Z" fill="#442823"/><path d="M21.59,48.25s1,5.39,2.6,7.09.5-1.3.5-1.3-1.7-.9-1.4-7.79-1.7,2-1.7,2Zm85.22,0s-1,5.39-2.6,7.09-.5-1.3-.5-1.3,1.7-.9,1.4-7.79,1.7,2,1.7,2Z" fill="#ccac8d"/><circle cx="54.26" cy="44.16" r="0.8" fill="#442823"/><circle cx="49.66" cy="48.95" r="0.8" fill="#442823"/><circle cx="48.17" cy="44.16" r="0.8" fill="#442823"/><circle cx="73.74" cy="44.16" r="0.8" fill="#442823"/><circle cx="78.34" cy="48.95" r="0.8" fill="#442823"/><circle cx="79.83" cy="44.16" r="0.8" fill="#442823"/></svg>